<svg width="1058" height="615" viewBox="0 0 1058 615" fill="none" xmlns="http://www.w3.org/2000/svg">
<g filter="url(#filter0_d_1203_519)">
<path d="M1021.72 196.078C1043.68 183.68 959.879 249.099 904.541 228.69C849.203 208.281 880.531 143.083 827.251 111.803C773.971 80.5227 687.305 140.117 660.551 104.724C633.797 69.3313 617.209 14 617.209 14" stroke="black" stroke-width="9"/>
</g>
<g filter="url(#filter1_d_1203_519)">
<path d="M371.444 360.321C338.516 340.175 344.5 304 319.566 286.023C294.633 268.045 269.49 275.146 251.609 286.023C207.924 312.593 228.579 368.176 181.258 390.508C142.848 408.635 96.0922 373.688 67.0636 400.731C47.1168 419.314 44.5756 444.001 49.7389 462.275C57.2894 488.997 73.4573 512.452 107.08 515.845C195.242 524.741 222.525 462.361 301.553 470.658C332.798 473.938 347.788 490.351 379.146 489.06C418.022 487.459 459 462.275 466.799 452.256C474.599 442.237 503.386 394.444 466.799 376.838C430.212 359.232 404.373 380.468 371.444 360.321Z" stroke="black" stroke-width="9" shape-rendering="crispEdges"/>
</g>
<defs>
<filter id="filter0_d_1203_519" x="600.899" y="0.707031" width="456.91" height="264.459" filterUnits="userSpaceOnUse" color-interpolation-filters="sRGB">
<feFlood flood-opacity="0" result="BackgroundImageFix"/>
<feColorMatrix in="SourceAlpha" type="matrix" values="0 0 0 0 0 0 0 0 0 0 0 0 0 0 0 0 0 0 127 0" result="hardAlpha"/>
<feOffset dx="8" dy="8"/>
<feGaussianBlur stdDeviation="10"/>
<feComposite in2="hardAlpha" operator="out"/>
<feColorMatrix type="matrix" values="0 0 0 0 0.298039 0 0 0 0 0.470588 0 0 0 0 0.223529 0 0 0 1 0"/>
<feBlend mode="normal" in2="BackgroundImageFix" result="effect1_dropShadow_1203_519"/>
<feBlend mode="normal" in="SourceGraphic" in2="effect1_dropShadow_1203_519" result="shape"/>
</filter>
<filter id="filter1_d_1203_519" x="30.5146" y="258.998" width="487.335" height="289.762" filterUnits="userSpaceOnUse" color-interpolation-filters="sRGB">
<feFlood flood-opacity="0" result="BackgroundImageFix"/>
<feColorMatrix in="SourceAlpha" type="matrix" values="0 0 0 0 0 0 0 0 0 0 0 0 0 0 0 0 0 0 127 0" result="hardAlpha"/>
<feOffset dx="8" dy="8"/>
<feGaussianBlur stdDeviation="10"/>
<feComposite in2="hardAlpha" operator="out"/>
<feColorMatrix type="matrix" values="0 0 0 0 0.298039 0 0 0 0 0.470588 0 0 0 0 0.223529 0 0 0 1 0"/>
<feBlend mode="normal" in2="BackgroundImageFix" result="effect1_dropShadow_1203_519"/>
<feBlend mode="normal" in="SourceGraphic" in2="effect1_dropShadow_1203_519" result="shape"/>
</filter>
</defs>
</svg>
