<svg width="1213" height="424" viewBox="0 0 1213 424" fill="none" xmlns="http://www.w3.org/2000/svg">
<g filter="url(#filter0_d_1438_576)">
<path d="M507.869 142.098C477.494 119.256 482.465 78.9239 459.428 58.5874C436.39 38.2509 413.507 45.9166 397.313 57.8738C357.751 87.0852 377.396 149.369 334.452 173.809C299.595 193.648 256.378 154.133 230.218 184.026C212.242 204.567 210.26 232.108 215.231 252.568C222.501 282.487 237.602 308.847 268.38 312.989C349.084 323.849 373.162 254.478 445.508 264.573C474.112 268.564 488.039 287.049 516.683 285.936C552.194 284.556 589.301 256.865 596.292 245.759C603.282 234.654 628.936 181.587 595.252 161.543C561.569 141.5 538.244 164.941 507.869 142.098Z" stroke="black" stroke-width="9" shape-rendering="crispEdges"/>
</g>
<defs>
<filter id="filter0_d_1438_576" x="196.305" y="29.5625" width="448.491" height="317.006" filterUnits="userSpaceOnUse" color-interpolation-filters="sRGB">
<feFlood flood-opacity="0" result="BackgroundImageFix"/>
<feColorMatrix in="SourceAlpha" type="matrix" values="0 0 0 0 0 0 0 0 0 0 0 0 0 0 0 0 0 0 127 0" result="hardAlpha"/>
<feOffset dx="8" dy="8"/>
<feGaussianBlur stdDeviation="10"/>
<feComposite in2="hardAlpha" operator="out"/>
<feColorMatrix type="matrix" values="0 0 0 0 0.298039 0 0 0 0 0.470588 0 0 0 0 0.223529 0 0 0 1 0"/>
<feBlend mode="normal" in2="BackgroundImageFix" result="effect1_dropShadow_1438_576"/>
<feBlend mode="normal" in="SourceGraphic" in2="effect1_dropShadow_1438_576" result="shape"/>
</filter>
</defs>
</svg>
